<?xml version="1.0" encoding="UTF-8"?>
<svg version="1.1" xmlns="http://www.w3.org/2000/svg" width="225" height="225">
<path d="M0 0 C74.25 0 148.5 0 225 0 C225 74.25 225 148.5 225 225 C150.75 225 76.5 225 0 225 C0 150.75 0 76.5 0 0 Z " fill="#FEFEFE" transform="translate(0,0)"/>
<path d="M0 0 C3.18533434 2.71894582 5.65285246 5.53825225 8 9 C8.45117188 9.66386719 8.90234375 10.32773437 9.3671875 11.01171875 C13.16129458 17.88036087 13.23023062 26.38617638 12 34 C9.16688494 42.93982949 4.59241179 48.74838598 -3.3984375 53.39453125 C-15.10171118 59.34912944 -30.18226956 60.89731701 -43 58 C-43 58.66 -43 59.32 -43 60 C-41.700625 59.95875 -40.40125 59.9175 -39.0625 59.875 C-25.69099854 59.89402063 -9.77091662 60.41005979 0.2578125 70.13671875 C0.83273438 70.75160156 1.40765625 71.36648437 2 72 C2.47179687 72.50144531 2.94359375 73.00289063 3.4296875 73.51953125 C15.20000568 87.9582756 16.45302969 113.21439013 16 131 C11.38 131 6.76 131 2 131 C1.773125 129.5975 1.54625 128.195 1.3125 126.75 C-1.23941688 114.22079696 -7.06408824 103.42089735 -17.03515625 95.28125 C-26.39820738 89.17572163 -37.18006564 87.52566843 -48.06640625 89.578125 C-63.6844984 94.15333175 -75.49778919 105.39214804 -83.375 119.3125 C-85.96193251 124.04564411 -85.96193251 124.04564411 -88.30859375 128.8984375 C-90 131 -90 131 -93.13671875 131.48828125 C-94.30847656 131.43027344 -95.48023438 131.37226563 -96.6875 131.3125 C-97.86699219 131.26738281 -99.04648438 131.22226563 -100.26171875 131.17578125 C-101.16535156 131.11777344 -102.06898437 131.05976563 -103 131 C-102.72627563 130.09773682 -102.72627563 130.09773682 -102.44702148 129.17724609 C-97.44689287 112.61461987 -93.02375746 96.04360949 -90 79 C-89.84901855 78.15179688 -89.69803711 77.30359375 -89.54248047 76.4296875 C-89.09840384 73.89265423 -88.67013072 71.35360106 -88.25 68.8125 C-88.12214111 68.05880127 -87.99428223 67.30510254 -87.86254883 66.52856445 C-86.36760391 57.37092889 -86.36760391 57.37092889 -88 48.4375 C-91.12884895 46.18863982 -94.33321982 46.62640353 -98 47 C-100.00097458 47.3274322 -102.00133314 47.65876419 -104 48 C-105 47 -105 47 -105.3125 44.125 C-104.99786252 30.080727 -94.63395796 17.97125585 -85.13549805 8.59448242 C-62.73395949 -12.5473512 -26.12295489 -17.14942077 0 0 Z " fill="#020202" transform="translate(157,52)"/>
<path d="M0 0 C5.48349672 3.83172538 9.20119168 9.04107503 11.3125 15.375 C11.97408095 23.30312586 11.87517824 29.70647027 7.3125 36.375 C6.77625 37.24125 6.24 38.1075 5.6875 39 C-1.45851206 46.14601206 -10.03425364 49.37744873 -20 49.75 C-29.35815139 49.56755898 -36.19327529 46.646457 -42.99609375 40.2421875 C-49.06844674 33.53875856 -50.18463557 26.56949321 -50.0859375 17.765625 C-49.20253354 10.24803048 -45.00037281 5.15932162 -39.3125 0.4375 C-26.93834812 -8.2778495 -12.82712328 -7.68346819 0 0 Z " fill="#FCFCFC" transform="translate(131.6875,57.625)"/>
<path d="M0 0 C3.0625 0.1875 3.0625 0.1875 5.0625 2.1875 C4.73278521 5.48464793 4.4398161 6.8101839 2.0625 9.1875 C-1.23464793 8.85778521 -2.5601839 8.5648161 -4.9375 6.1875 C-4.21574268 0.26908996 -4.21574268 0.26908996 0 0 Z " fill="#E6E6E6" transform="translate(64.9375,78.8125)"/>
</svg>
